<svg width="1024" height="753" viewBox="0 0 1024 753" fill="none" xmlns="http://www.w3.org/2000/svg">
<g clip-path="url(#clip0_122_130)">
<rect width="1024" height="753" fill="#121214"/>
<g opacity="0.2" filter="url(#filter0_f_122_130)">
<ellipse cx="512.5" cy="30" rx="670.5" ry="350" fill="#B3A659"/>
</g>
<path d="M33.0349 266C34.5302 266 35.6622 266.63 36.4308 267.891C37.2134 269.138 37.6047 270.953 37.6047 273.336C37.6047 275.719 37.2134 277.541 36.4308 278.802C35.6622 280.063 34.5302 280.693 33.0349 280.693C31.5536 280.693 30.4216 280.063 29.639 278.802C28.8564 277.541 28.4651 275.719 28.4651 273.336C28.4651 270.967 28.8564 269.152 29.639 267.891C30.4216 266.63 31.5536 266 33.0349 266ZM29.9534 273.336C29.9534 275.026 30.1072 276.35 30.4146 277.306L35.0683 268.099C34.5791 267.448 33.9013 267.122 33.0349 267.122C32.0706 267.122 31.316 267.635 30.771 268.66C30.2259 269.672 29.9534 271.23 29.9534 273.336ZM33.0349 279.55C34.0131 279.55 34.7748 279.044 35.3198 278.033C35.8648 277.008 36.1373 275.442 36.1373 273.336C36.1373 271.549 35.9627 270.163 35.6133 269.18L30.9596 278.469C31.4627 279.19 32.1545 279.55 33.0349 279.55Z" fill="url(#paint0_linear_122_130)" fill-opacity="0.6"/>
<path d="M34.2926 303.135H37.3741V304.236H29.3874V303.135H32.9511V291.455L29.5551 293.471L28.9682 292.536L33.1607 289.959H34.2926V303.135Z" fill="url(#paint1_linear_122_130)" fill-opacity="0.6"/>
<path d="M33.0349 313.502C34.5302 313.502 35.6622 314.133 36.4308 315.393C37.2134 316.64 37.6047 318.455 37.6047 320.838C37.6047 323.221 37.2134 325.043 36.4308 326.304C35.6622 327.565 34.5302 328.195 33.0349 328.195C31.5536 328.195 30.4216 327.565 29.639 326.304C28.8564 325.043 28.4651 323.221 28.4651 320.838C28.4651 318.469 28.8564 316.654 29.639 315.393C30.4216 314.133 31.5536 313.502 33.0349 313.502ZM29.9534 320.838C29.9534 322.529 30.1072 323.852 30.4146 324.808L35.0683 315.601C34.5791 314.95 33.9013 314.624 33.0349 314.624C32.0706 314.624 31.316 315.137 30.771 316.162C30.2259 317.174 29.9534 318.732 29.9534 320.838ZM33.0349 327.052C34.0131 327.052 34.7748 326.546 35.3198 325.535C35.8648 324.51 36.1373 322.944 36.1373 320.838C36.1373 319.051 35.9627 317.665 35.6133 316.682L30.9596 325.971C31.4627 326.692 32.1545 327.052 33.0349 327.052Z" fill="url(#paint2_linear_122_130)" fill-opacity="0.6"/>
<path d="M34.2926 350.637H37.3741V351.738H29.3874V350.637H32.9511V338.957L29.5551 340.973L28.9682 340.038L33.1607 337.461H34.2926V350.637Z" fill="url(#paint3_linear_122_130)" fill-opacity="0.6"/>
<path d="M34.2926 374.388H37.3741V375.489H29.3874V374.388H32.9511V362.708L29.5551 364.724L28.9682 363.789L33.1607 361.212H34.2926V374.388Z" fill="url(#paint4_linear_122_130)" fill-opacity="0.6"/>
<path d="M33.0349 384.755C34.5302 384.755 35.6622 385.386 36.4308 386.646C37.2134 387.893 37.6047 389.708 37.6047 392.091C37.6047 394.474 37.2134 396.296 36.4308 397.557C35.6622 398.818 34.5302 399.448 33.0349 399.448C31.5536 399.448 30.4216 398.818 29.639 397.557C28.8564 396.296 28.4651 394.474 28.4651 392.091C28.4651 389.722 28.8564 387.907 29.639 386.646C30.4216 385.386 31.5536 384.755 33.0349 384.755ZM29.9534 392.091C29.9534 393.782 30.1072 395.105 30.4146 396.061L35.0683 386.854C34.5791 386.203 33.9013 385.878 33.0349 385.878C32.0706 385.878 31.316 386.39 30.771 387.415C30.2259 388.427 29.9534 389.985 29.9534 392.091ZM33.0349 398.305C34.0131 398.305 34.7748 397.8 35.3198 396.788C35.8648 395.763 36.1373 394.197 36.1373 392.091C36.1373 390.304 35.9627 388.919 35.6133 387.935L30.9596 397.225C31.4627 397.945 32.1545 398.305 33.0349 398.305Z" fill="url(#paint5_linear_122_130)" fill-opacity="0.6"/>
<path d="M34.2926 421.89H37.3741V422.992H29.3874V421.89H32.9511V410.21L29.5551 412.226L28.9682 411.291L33.1607 408.714H34.2926V421.89Z" fill="url(#paint6_linear_122_130)" fill-opacity="0.6"/>
<path d="M33.0349 432.257C34.5302 432.257 35.6622 432.888 36.4308 434.149C37.2134 435.396 37.6047 437.211 37.6047 439.594C37.6047 441.977 37.2134 443.798 36.4308 445.059C35.6622 446.32 34.5302 446.95 33.0349 446.95C31.5536 446.95 30.4216 446.32 29.639 445.059C28.8564 443.798 28.4651 441.977 28.4651 439.594C28.4651 437.224 28.8564 435.409 29.639 434.149C30.4216 432.888 31.5536 432.257 33.0349 432.257ZM29.9534 439.594C29.9534 441.284 30.1072 442.607 30.4146 443.563L35.0683 434.356C34.5791 433.705 33.9013 433.38 33.0349 433.38C32.0706 433.38 31.316 433.892 30.771 434.918C30.2259 435.929 29.9534 437.488 29.9534 439.594ZM33.0349 445.807C34.0131 445.807 34.7748 445.302 35.3198 444.29C35.8648 443.265 36.1373 441.699 36.1373 439.594C36.1373 437.806 35.9627 436.421 35.6133 435.437L30.9596 444.727C31.4627 445.447 32.1545 445.807 33.0349 445.807Z" fill="url(#paint7_linear_122_130)" fill-opacity="0.6"/>
<path d="M33.0349 456.008C34.5302 456.008 35.6622 456.639 36.4308 457.9C37.2134 459.147 37.6047 460.962 37.6047 463.345C37.6047 465.728 37.2134 467.549 36.4308 468.81C35.6622 470.071 34.5302 470.701 33.0349 470.701C31.5536 470.701 30.4216 470.071 29.639 468.81C28.8564 467.549 28.4651 465.728 28.4651 463.345C28.4651 460.975 28.8564 459.16 29.639 457.9C30.4216 456.639 31.5536 456.008 33.0349 456.008ZM29.9534 463.345C29.9534 465.035 30.1072 466.358 30.4146 467.314L35.0683 458.107C34.5791 457.456 33.9013 457.131 33.0349 457.131C32.0706 457.131 31.316 457.643 30.771 458.669C30.2259 459.68 29.9534 461.239 29.9534 463.345ZM33.0349 469.558C34.0131 469.558 34.7748 469.053 35.3198 468.041C35.8648 467.016 36.1373 465.451 36.1373 463.345C36.1373 461.557 35.9627 460.172 35.6133 459.188L30.9596 468.478C31.4627 469.198 32.1545 469.558 33.0349 469.558Z" fill="url(#paint8_linear_122_130)" fill-opacity="0.6"/>
<path d="M34.2926 493.143H37.3741V494.245H29.3874V493.143H32.9511V481.464L29.5551 483.48L28.9682 482.544L33.1607 479.967H34.2926V493.143Z" fill="url(#paint9_linear_122_130)" fill-opacity="0.6"/>
<path d="M33.0349 503.511C34.5302 503.511 35.6622 504.141 36.4308 505.402C37.2134 506.649 37.6047 508.464 37.6047 510.847C37.6047 513.23 37.2134 515.052 36.4308 516.312C35.6622 517.573 34.5302 518.204 33.0349 518.204C31.5536 518.204 30.4216 517.573 29.639 516.312C28.8564 515.052 28.4651 513.23 28.4651 510.847C28.4651 508.478 28.8564 506.663 29.639 505.402C30.4216 504.141 31.5536 503.511 33.0349 503.511ZM29.9534 510.847C29.9534 512.537 30.1072 513.86 30.4146 514.816L35.0683 505.61C34.5791 504.958 33.9013 504.633 33.0349 504.633C32.0706 504.633 31.316 505.145 30.771 506.171C30.2259 507.182 29.9534 508.741 29.9534 510.847ZM33.0349 517.061C34.0131 517.061 34.7748 516.555 35.3198 515.543C35.8648 514.518 36.1373 512.953 36.1373 510.847C36.1373 509.059 35.9627 507.674 35.6133 506.69L30.9596 515.98C31.4627 516.7 32.1545 517.061 33.0349 517.061Z" fill="url(#paint10_linear_122_130)" fill-opacity="0.6"/>
<path d="M34.2926 540.645H37.3741V541.747H29.3874V540.645H32.9511V528.966L29.5551 530.982L28.9682 530.046L33.1607 527.469H34.2926V540.645Z" fill="url(#paint11_linear_122_130)" fill-opacity="0.6"/>
<path d="M34.2926 564.396H37.3741V565.498H29.3874V564.396H32.9511V552.717L29.5551 554.733L28.9682 553.798L33.1607 551.221H34.2926V564.396Z" fill="url(#paint12_linear_122_130)" fill-opacity="0.6"/>
<path d="M71.9651 313.502C73.4604 313.502 74.5924 314.133 75.361 315.393C76.1436 316.64 76.5349 318.455 76.5349 320.838C76.5349 323.221 76.1436 325.043 75.361 326.304C74.5924 327.565 73.4604 328.195 71.9651 328.195C70.4838 328.195 69.3518 327.565 68.5692 326.304C67.7866 325.043 67.3953 323.221 67.3953 320.838C67.3953 318.469 67.7866 316.654 68.5692 315.393C69.3518 314.133 70.4838 313.502 71.9651 313.502ZM68.8836 320.838C68.8836 322.529 69.0374 323.852 69.3448 324.808L73.9985 315.601C73.5093 314.95 72.8315 314.624 71.9651 314.624C71.0008 314.624 70.2462 315.137 69.7012 316.162C69.1561 317.174 68.8836 318.732 68.8836 320.838ZM71.9651 327.052C72.9433 327.052 73.705 326.546 74.25 325.535C74.795 324.51 75.0675 322.944 75.0675 320.838C75.0675 319.051 74.8928 317.665 74.5435 316.682L69.8898 325.971C70.3929 326.692 71.0847 327.052 71.9651 327.052Z" fill="url(#paint13_linear_122_130)" fill-opacity="0.6"/>
<path d="M73.2228 350.637H76.3043V351.738H68.3176V350.637H71.8812V338.957L68.4853 340.973L67.8984 340.038L72.0909 337.461H73.2228V350.637Z" fill="url(#paint14_linear_122_130)" fill-opacity="0.6"/>
<path d="M71.9651 361.004C73.4604 361.004 74.5924 361.635 75.361 362.895C76.1436 364.142 76.5349 365.957 76.5349 368.34C76.5349 370.723 76.1436 372.545 75.361 373.806C74.5924 375.067 73.4604 375.697 71.9651 375.697C70.4838 375.697 69.3518 375.067 68.5692 373.806C67.7866 372.545 67.3953 370.723 67.3953 368.34C67.3953 365.971 67.7866 364.156 68.5692 362.895C69.3518 361.635 70.4838 361.004 71.9651 361.004ZM68.8836 368.34C68.8836 370.031 69.0374 371.354 69.3448 372.31L73.9985 363.103C73.5093 362.452 72.8315 362.126 71.9651 362.126C71.0008 362.126 70.2462 362.639 69.7012 363.664C69.1561 364.676 68.8836 366.234 68.8836 368.34ZM71.9651 374.554C72.9433 374.554 73.705 374.049 74.25 373.037C74.795 372.012 75.0675 370.446 75.0675 368.34C75.0675 366.553 74.8928 365.168 74.5435 364.184L69.8898 373.474C70.3929 374.194 71.0847 374.554 71.9651 374.554Z" fill="url(#paint15_linear_122_130)" fill-opacity="0.6"/>
<path d="M71.9651 384.755C73.4604 384.755 74.5924 385.386 75.361 386.646C76.1436 387.893 76.5349 389.708 76.5349 392.091C76.5349 394.474 76.1436 396.296 75.361 397.557C74.5924 398.818 73.4604 399.448 71.9651 399.448C70.4838 399.448 69.3518 398.818 68.5692 397.557C67.7866 396.296 67.3953 394.474 67.3953 392.091C67.3953 389.722 67.7866 387.907 68.5692 386.646C69.3518 385.386 70.4838 384.755 71.9651 384.755ZM68.8836 392.091C68.8836 393.782 69.0374 395.105 69.3448 396.061L73.9985 386.854C73.5093 386.203 72.8315 385.878 71.9651 385.878C71.0008 385.878 70.2462 386.39 69.7012 387.415C69.1561 388.427 68.8836 389.985 68.8836 392.091ZM71.9651 398.305C72.9433 398.305 73.705 397.8 74.25 396.788C74.795 395.763 75.0675 394.197 75.0675 392.091C75.0675 390.304 74.8928 388.919 74.5435 387.935L69.8898 397.225C70.3929 397.945 71.0847 398.305 71.9651 398.305Z" fill="url(#paint16_linear_122_130)" fill-opacity="0.6"/>
<path d="M73.2228 421.89H76.3043V422.992H68.3176V421.89H71.8812V410.21L68.4853 412.226L67.8984 411.291L72.0909 408.714H73.2228V421.89Z" fill="url(#paint17_linear_122_130)" fill-opacity="0.6"/>
<path d="M71.9651 432.257C73.4604 432.257 74.5924 432.888 75.361 434.149C76.1436 435.396 76.5349 437.211 76.5349 439.594C76.5349 441.977 76.1436 443.798 75.361 445.059C74.5924 446.32 73.4604 446.95 71.9651 446.95C70.4838 446.95 69.3518 446.32 68.5692 445.059C67.7866 443.798 67.3953 441.977 67.3953 439.594C67.3953 437.224 67.7866 435.409 68.5692 434.149C69.3518 432.888 70.4838 432.257 71.9651 432.257ZM68.8836 439.594C68.8836 441.284 69.0374 442.607 69.3448 443.563L73.9985 434.356C73.5093 433.705 72.8315 433.38 71.9651 433.38C71.0008 433.38 70.2462 433.892 69.7012 434.918C69.1561 435.929 68.8836 437.488 68.8836 439.594ZM71.9651 445.807C72.9433 445.807 73.705 445.302 74.25 444.29C74.795 443.265 75.0675 441.699 75.0675 439.594C75.0675 437.806 74.8928 436.421 74.5435 435.437L69.8898 444.727C70.3929 445.447 71.0847 445.807 71.9651 445.807Z" fill="url(#paint18_linear_122_130)" fill-opacity="0.6"/>
<path d="M73.2228 469.392H76.3043V470.494H68.3176V469.392H71.8812V457.713L68.4853 459.728L67.8984 458.793L72.0909 456.216H73.2228V469.392Z" fill="url(#paint19_linear_122_130)" fill-opacity="0.6"/>
<path d="M71.9651 479.76C73.4604 479.76 74.5924 480.39 75.361 481.651C76.1436 482.898 76.5349 484.713 76.5349 487.096C76.5349 489.479 76.1436 491.301 75.361 492.561C74.5924 493.822 73.4604 494.453 71.9651 494.453C70.4838 494.453 69.3518 493.822 68.5692 492.561C67.7866 491.301 67.3953 489.479 67.3953 487.096C67.3953 484.726 67.7866 482.911 68.5692 481.651C69.3518 480.39 70.4838 479.76 71.9651 479.76ZM68.8836 487.096C68.8836 488.786 69.0374 490.109 69.3448 491.065L73.9985 481.859C73.5093 481.207 72.8315 480.882 71.9651 480.882C71.0008 480.882 70.2462 481.394 69.7012 482.42C69.1561 483.431 68.8836 484.99 68.8836 487.096ZM71.9651 493.31C72.9433 493.31 73.705 492.804 74.25 491.792C74.795 490.767 75.0675 489.202 75.0675 487.096C75.0675 485.308 74.8928 483.923 74.5435 482.939L69.8898 492.229C70.3929 492.949 71.0847 493.31 71.9651 493.31Z" fill="url(#paint20_linear_122_130)" fill-opacity="0.6"/>
<path d="M71.9651 503.511C73.4604 503.511 74.5924 504.141 75.361 505.402C76.1436 506.649 76.5349 508.464 76.5349 510.847C76.5349 513.23 76.1436 515.052 75.361 516.312C74.5924 517.573 73.4604 518.204 71.9651 518.204C70.4838 518.204 69.3518 517.573 68.5692 516.312C67.7866 515.052 67.3953 513.23 67.3953 510.847C67.3953 508.478 67.7866 506.663 68.5692 505.402C69.3518 504.141 70.4838 503.511 71.9651 503.511ZM68.8836 510.847C68.8836 512.537 69.0374 513.86 69.3448 514.816L73.9985 505.61C73.5093 504.958 72.8315 504.633 71.9651 504.633C71.0008 504.633 70.2462 505.145 69.7012 506.171C69.1561 507.182 68.8836 508.741 68.8836 510.847ZM71.9651 517.061C72.9433 517.061 73.705 516.555 74.25 515.543C74.795 514.518 75.0675 512.953 75.0675 510.847C75.0675 509.059 74.8928 507.674 74.5435 506.69L69.8898 515.98C70.3929 516.7 71.0847 517.061 71.9651 517.061Z" fill="url(#paint21_linear_122_130)" fill-opacity="0.6"/>
<path d="M73.2228 540.645H76.3043V541.747H68.3176V540.645H71.8812V528.966L68.4853 530.982L67.8984 530.046L72.0909 527.469H73.2228V540.645Z" fill="url(#paint22_linear_122_130)" fill-opacity="0.6"/>
<path d="M71.9651 551.013C73.4604 551.013 74.5924 551.643 75.361 552.904C76.1436 554.151 76.5349 555.966 76.5349 558.349C76.5349 560.732 76.1436 562.554 75.361 563.815C74.5924 565.075 73.4604 565.706 71.9651 565.706C70.4838 565.706 69.3518 565.075 68.5692 563.815C67.7866 562.554 67.3953 560.732 67.3953 558.349C67.3953 555.98 67.7866 554.165 68.5692 552.904C69.3518 551.643 70.4838 551.013 71.9651 551.013ZM68.8836 558.349C68.8836 560.039 69.0374 561.362 69.3448 562.318L73.9985 553.112C73.5093 552.461 72.8315 552.135 71.9651 552.135C71.0008 552.135 70.2462 552.648 69.7012 553.673C69.1561 554.684 68.8836 556.243 68.8836 558.349ZM71.9651 564.563C72.9433 564.563 73.705 564.057 74.25 563.046C74.795 562.02 75.0675 560.455 75.0675 558.349C75.0675 556.562 74.8928 555.176 74.5435 554.192L69.8898 563.482C70.3929 564.202 71.0847 564.563 71.9651 564.563Z" fill="url(#paint23_linear_122_130)" fill-opacity="0.6"/>
<path d="M73.2228 588.148H76.3043V589.249H68.3176V588.148H71.8812V576.468L68.4853 578.484L67.8984 577.549L72.0909 574.972H73.2228V588.148Z" fill="url(#paint24_linear_122_130)" fill-opacity="0.6"/>
<path d="M73.2228 611.899H76.3043V613H68.3176V611.899H71.8812V600.219L68.4853 602.235L67.8984 601.3L72.0909 598.723H73.2228V611.899Z" fill="url(#paint25_linear_122_130)" fill-opacity="0.6"/>
<path d="M13.5698 337.253C15.0651 337.253 16.1971 337.884 16.9657 339.144C17.7483 340.391 18.1396 342.206 18.1396 344.589C18.1396 346.972 17.7483 348.794 16.9657 350.055C16.1971 351.316 15.0651 351.946 13.5698 351.946C12.0885 351.946 10.9565 351.316 10.1739 350.055C9.3913 348.794 9 346.972 9 344.589C9 342.22 9.3913 340.405 10.1739 339.144C10.9565 337.884 12.0885 337.253 13.5698 337.253ZM10.4883 344.589C10.4883 346.28 10.6421 347.603 10.9495 348.559L15.6032 339.352C15.114 338.701 14.4363 338.375 13.5698 338.375C12.6055 338.375 11.8509 338.888 11.3059 339.913C10.7608 340.925 10.4883 342.483 10.4883 344.589ZM13.5698 350.803C14.5481 350.803 15.3097 350.297 15.8547 349.286C16.3997 348.261 16.6722 346.695 16.6722 344.589C16.6722 342.802 16.4976 341.417 16.1482 340.433L11.4945 349.722C11.9976 350.443 12.6894 350.803 13.5698 350.803Z" fill="url(#paint26_linear_122_130)" fill-opacity="0.6"/>
<path d="M13.5698 361.004C15.0651 361.004 16.1971 361.635 16.9657 362.895C17.7483 364.142 18.1396 365.957 18.1396 368.34C18.1396 370.723 17.7483 372.545 16.9657 373.806C16.1971 375.067 15.0651 375.697 13.5698 375.697C12.0885 375.697 10.9565 375.067 10.1739 373.806C9.3913 372.545 9 370.723 9 368.34C9 365.971 9.3913 364.156 10.1739 362.895C10.9565 361.635 12.0885 361.004 13.5698 361.004ZM10.4883 368.34C10.4883 370.031 10.6421 371.354 10.9495 372.31L15.6032 363.103C15.114 362.452 14.4363 362.126 13.5698 362.126C12.6055 362.126 11.8509 362.639 11.3059 363.664C10.7608 364.676 10.4883 366.234 10.4883 368.34ZM13.5698 374.554C14.5481 374.554 15.3097 374.049 15.8547 373.037C16.3997 372.012 16.6722 370.446 16.6722 368.34C16.6722 366.553 16.4976 365.168 16.1482 364.184L11.4945 373.474C11.9976 374.194 12.6894 374.554 13.5698 374.554Z" fill="url(#paint27_linear_122_130)" fill-opacity="0.6"/>
<path d="M14.8276 398.139H17.909V399.24H9.92235V398.139H13.486V386.459L10.09 388.475L9.5031 387.54L13.6956 384.963H14.8276V398.139Z" fill="url(#paint28_linear_122_130)" fill-opacity="0.6"/>
<path d="M13.5698 408.506C15.0651 408.506 16.1971 409.137 16.9657 410.398C17.7483 411.644 18.1396 413.459 18.1396 415.842C18.1396 418.225 17.7483 420.047 16.9657 421.308C16.1971 422.569 15.0651 423.199 13.5698 423.199C12.0885 423.199 10.9565 422.569 10.1739 421.308C9.3913 420.047 9 418.225 9 415.842C9 413.473 9.3913 411.658 10.1739 410.398C10.9565 409.137 12.0885 408.506 13.5698 408.506ZM10.4883 415.842C10.4883 417.533 10.6421 418.856 10.9495 419.812L15.6032 410.605C15.114 409.954 14.4363 409.629 13.5698 409.629C12.6055 409.629 11.8509 410.141 11.3059 411.166C10.7608 412.178 10.4883 413.737 10.4883 415.842ZM13.5698 422.056C14.5481 422.056 15.3097 421.551 15.8547 420.539C16.3997 419.514 16.6722 417.948 16.6722 415.842C16.6722 414.055 16.4976 412.67 16.1482 411.686L11.4945 420.976C11.9976 421.696 12.6894 422.056 13.5698 422.056Z" fill="url(#paint29_linear_122_130)" fill-opacity="0.6"/>
<path d="M14.8276 445.641H17.909V446.743H9.92235V445.641H13.486V433.962L10.09 435.977L9.5031 435.042L13.6956 432.465H14.8276V445.641Z" fill="url(#paint30_linear_122_130)" fill-opacity="0.6"/>
<path d="M14.8276 469.392H17.909V470.494H9.92235V469.392H13.486V457.713L10.09 459.728L9.5031 458.793L13.6956 456.216H14.8276V469.392Z" fill="url(#paint31_linear_122_130)" fill-opacity="0.6"/>
<path d="M53.7577 303.135H56.8392V304.236H48.8525V303.135H52.4162V291.455L49.0202 293.471L48.4333 292.536L52.6258 289.959H53.7577V303.135Z" fill="url(#paint32_linear_122_130)" fill-opacity="0.6"/>
<path d="M52.5 313.502C53.9953 313.502 55.1273 314.133 55.8959 315.393C56.6785 316.64 57.0698 318.455 57.0698 320.838C57.0698 323.221 56.6785 325.043 55.8959 326.304C55.1273 327.565 53.9953 328.195 52.5 328.195C51.0187 328.195 49.8867 327.565 49.1041 326.304C48.3215 325.043 47.9302 323.221 47.9302 320.838C47.9302 318.469 48.3215 316.654 49.1041 315.393C49.8867 314.133 51.0187 313.502 52.5 313.502ZM49.4185 320.838C49.4185 322.529 49.5723 323.852 49.8797 324.808L54.5334 315.601C54.0442 314.95 53.3664 314.624 52.5 314.624C51.5357 314.624 50.7811 315.137 50.2361 316.162C49.691 317.174 49.4185 318.732 49.4185 320.838ZM52.5 327.052C53.4782 327.052 54.2399 326.546 54.7849 325.535C55.3299 324.51 55.6024 322.944 55.6024 320.838C55.6024 319.051 55.4277 317.665 55.0784 316.682L50.4247 325.971C50.9278 326.692 51.6196 327.052 52.5 327.052Z" fill="url(#paint33_linear_122_130)" fill-opacity="0.6"/>
<path d="M53.7577 350.637H56.8392V351.738H48.8525V350.637H52.4162V338.957L49.0202 340.973L48.4333 340.038L52.6258 337.461H53.7577V350.637Z" fill="url(#paint34_linear_122_130)" fill-opacity="0.6"/>
<path d="M53.7577 374.388H56.8392V375.489H48.8525V374.388H52.4162V362.708L49.0202 364.724L48.4333 363.789L52.6258 361.212H53.7577V374.388Z" fill="url(#paint35_linear_122_130)" fill-opacity="0.6"/>
<path d="M52.5 384.755C53.9953 384.755 55.1273 385.386 55.8959 386.646C56.6785 387.893 57.0698 389.708 57.0698 392.091C57.0698 394.474 56.6785 396.296 55.8959 397.557C55.1273 398.818 53.9953 399.448 52.5 399.448C51.0187 399.448 49.8867 398.818 49.1041 397.557C48.3215 396.296 47.9302 394.474 47.9302 392.091C47.9302 389.722 48.3215 387.907 49.1041 386.646C49.8867 385.386 51.0187 384.755 52.5 384.755ZM49.4185 392.091C49.4185 393.782 49.5723 395.105 49.8797 396.061L54.5334 386.854C54.0442 386.203 53.3664 385.878 52.5 385.878C51.5357 385.878 50.7811 386.39 50.2361 387.415C49.691 388.427 49.4185 389.985 49.4185 392.091ZM52.5 398.305C53.4782 398.305 54.2399 397.8 54.7849 396.788C55.3299 395.763 55.6024 394.197 55.6024 392.091C55.6024 390.304 55.4277 388.919 55.0784 387.935L50.4247 397.225C50.9278 397.945 51.6196 398.305 52.5 398.305Z" fill="url(#paint36_linear_122_130)" fill-opacity="0.6"/>
<path d="M53.7577 421.89H56.8392V422.992H48.8525V421.89H52.4162V410.21L49.0202 412.226L48.4333 411.291L52.6258 408.714H53.7577V421.89Z" fill="url(#paint37_linear_122_130)" fill-opacity="0.6"/>
<path d="M53.7577 445.641H56.8392V446.743H48.8525V445.641H52.4162V433.962L49.0202 435.977L48.4333 435.042L52.6258 432.465H53.7577V445.641Z" fill="url(#paint38_linear_122_130)" fill-opacity="0.6"/>
<path d="M52.5 456.008C53.9953 456.008 55.1273 456.639 55.8959 457.9C56.6785 459.147 57.0698 460.962 57.0698 463.345C57.0698 465.728 56.6785 467.549 55.8959 468.81C55.1273 470.071 53.9953 470.701 52.5 470.701C51.0187 470.701 49.8867 470.071 49.1041 468.81C48.3215 467.549 47.9302 465.728 47.9302 463.345C47.9302 460.975 48.3215 459.16 49.1041 457.9C49.8867 456.639 51.0187 456.008 52.5 456.008ZM49.4185 463.345C49.4185 465.035 49.5723 466.358 49.8797 467.314L54.5334 458.107C54.0442 457.456 53.3664 457.131 52.5 457.131C51.5357 457.131 50.7811 457.643 50.2361 458.669C49.691 459.68 49.4185 461.239 49.4185 463.345ZM52.5 469.558C53.4782 469.558 54.2399 469.053 54.7849 468.041C55.3299 467.016 55.6024 465.451 55.6024 463.345C55.6024 461.557 55.4277 460.172 55.0784 459.188L50.4247 468.478C50.9278 469.198 51.6196 469.558 52.5 469.558Z" fill="url(#paint39_linear_122_130)" fill-opacity="0.6"/>
<path d="M53.7577 493.143H56.8392V494.245H48.8525V493.143H52.4162V481.464L49.0202 483.48L48.4333 482.544L52.6258 479.967H53.7577V493.143Z" fill="url(#paint40_linear_122_130)" fill-opacity="0.6"/>
<path d="M52.5 503.511C53.9953 503.511 55.1273 504.141 55.8959 505.402C56.6785 506.649 57.0698 508.464 57.0698 510.847C57.0698 513.23 56.6785 515.052 55.8959 516.312C55.1273 517.573 53.9953 518.204 52.5 518.204C51.0187 518.204 49.8867 517.573 49.1041 516.312C48.3215 515.052 47.9302 513.23 47.9302 510.847C47.9302 508.478 48.3215 506.663 49.1041 505.402C49.8867 504.141 51.0187 503.511 52.5 503.511ZM49.4185 510.847C49.4185 512.537 49.5723 513.86 49.8797 514.816L54.5334 505.61C54.0442 504.958 53.3664 504.633 52.5 504.633C51.5357 504.633 50.7811 505.145 50.2361 506.171C49.691 507.182 49.4185 508.741 49.4185 510.847ZM52.5 517.061C53.4782 517.061 54.2399 516.555 54.7849 515.543C55.3299 514.518 55.6024 512.953 55.6024 510.847C55.6024 509.059 55.4277 507.674 55.0784 506.69L50.4247 515.98C50.9278 516.7 51.6196 517.061 52.5 517.061Z" fill="url(#paint41_linear_122_130)" fill-opacity="0.6"/>
<path d="M91.4302 289.751C92.9255 289.751 94.0575 290.381 94.8261 291.642C95.6087 292.889 96 294.704 96 297.087C96 299.47 95.6087 301.292 94.8261 302.553C94.0575 303.814 92.9255 304.444 91.4302 304.444C89.9489 304.444 88.8169 303.814 88.0343 302.553C87.2517 301.292 86.8604 299.47 86.8604 297.087C86.8604 294.718 87.2517 292.903 88.0343 291.642C88.8169 290.381 89.9489 289.751 91.4302 289.751ZM88.3487 297.087C88.3487 298.777 88.5024 300.101 88.8099 301.057L93.4636 291.85C92.9744 291.199 92.2966 290.873 91.4302 290.873C90.4659 290.873 89.7113 291.386 89.1663 292.411C88.6212 293.423 88.3487 294.981 88.3487 297.087ZM91.4302 303.301C92.4084 303.301 93.1701 302.795 93.7151 301.784C94.2601 300.759 94.5326 299.193 94.5326 297.087C94.5326 295.3 94.3579 293.914 94.0086 292.931L89.3549 302.22C89.858 302.941 90.5498 303.301 91.4302 303.301Z" fill="url(#paint42_linear_122_130)" fill-opacity="0.6"/>
<path d="M92.6879 326.886H95.7694V327.987H87.7827V326.886H91.3463V315.206L87.9504 317.222L87.3635 316.287L91.556 313.71H92.6879V326.886Z" fill="url(#paint43_linear_122_130)" fill-opacity="0.6"/>
<path d="M92.6879 350.637H95.7694V351.738H87.7827V350.637H91.3463V338.957L87.9504 340.973L87.3635 340.038L91.556 337.461H92.6879V350.637Z" fill="url(#paint44_linear_122_130)" fill-opacity="0.6"/>
<path d="M91.4302 361.004C92.9255 361.004 94.0575 361.635 94.8261 362.895C95.6087 364.142 96 365.957 96 368.34C96 370.723 95.6087 372.545 94.8261 373.806C94.0575 375.067 92.9255 375.697 91.4302 375.697C89.9489 375.697 88.8169 375.067 88.0343 373.806C87.2517 372.545 86.8604 370.723 86.8604 368.34C86.8604 365.971 87.2517 364.156 88.0343 362.895C88.8169 361.635 89.9489 361.004 91.4302 361.004ZM88.3487 368.34C88.3487 370.031 88.5024 371.354 88.8099 372.31L93.4636 363.103C92.9744 362.452 92.2966 362.126 91.4302 362.126C90.4659 362.126 89.7113 362.639 89.1663 363.664C88.6212 364.676 88.3487 366.234 88.3487 368.34ZM91.4302 374.554C92.4084 374.554 93.1701 374.049 93.7151 373.037C94.2601 372.012 94.5326 370.446 94.5326 368.34C94.5326 366.553 94.3579 365.168 94.0086 364.184L89.3549 373.474C89.858 374.194 90.5498 374.554 91.4302 374.554Z" fill="url(#paint45_linear_122_130)" fill-opacity="0.6"/>
<path d="M91.4302 384.755C92.9255 384.755 94.0575 385.386 94.8261 386.646C95.6087 387.893 96 389.708 96 392.091C96 394.474 95.6087 396.296 94.8261 397.557C94.0575 398.818 92.9255 399.448 91.4302 399.448C89.9489 399.448 88.8169 398.818 88.0343 397.557C87.2517 396.296 86.8604 394.474 86.8604 392.091C86.8604 389.722 87.2517 387.907 88.0343 386.646C88.8169 385.386 89.9489 384.755 91.4302 384.755ZM88.3487 392.091C88.3487 393.782 88.5024 395.105 88.8099 396.061L93.4636 386.854C92.9744 386.203 92.2966 385.878 91.4302 385.878C90.4659 385.878 89.7113 386.39 89.1663 387.415C88.6212 388.427 88.3487 389.985 88.3487 392.091ZM91.4302 398.305C92.4084 398.305 93.1701 397.8 93.7151 396.788C94.2601 395.763 94.5326 394.197 94.5326 392.091C94.5326 390.304 94.3579 388.919 94.0086 387.935L89.3549 397.225C89.858 397.945 90.5498 398.305 91.4302 398.305Z" fill="url(#paint46_linear_122_130)" fill-opacity="0.6"/>
<g opacity="0.6">
<path d="M919.93 -34C921.356 -34 922.436 -33.395 923.17 -32.1851C923.916 -30.9885 924.29 -29.2468 924.29 -26.9599C924.29 -24.673 923.916 -22.9246 923.17 -21.7147C922.436 -20.5048 921.356 -19.8998 919.93 -19.8998C918.517 -19.8998 917.437 -20.5048 916.69 -21.7147C915.943 -22.9246 915.57 -24.673 915.57 -26.9599C915.57 -29.2335 915.943 -30.9752 916.69 -32.1851C917.437 -33.395 918.517 -34 919.93 -34ZM916.99 -26.9599C916.99 -25.3378 917.137 -24.068 917.43 -23.1506L921.87 -31.9857C921.403 -32.6106 920.756 -32.923 919.93 -32.923C919.01 -32.923 918.29 -32.4311 917.77 -31.4472C917.25 -30.4766 916.99 -28.9808 916.99 -26.9599ZM919.93 -20.9967C920.863 -20.9967 921.59 -21.482 922.11 -22.4526C922.63 -23.4365 922.89 -24.9389 922.89 -26.9599C922.89 -28.675 922.723 -30.0046 922.39 -30.9486L917.95 -22.0338C918.43 -21.3424 919.09 -20.9967 919.93 -20.9967Z" fill="url(#paint47_linear_122_130)"/>
<path d="M921.13 1.63655H924.07V2.69356H916.45V1.63655H919.85V-9.57181L916.61 -7.63727L916.05 -8.53474L920.05 -11.0078H921.13V1.63655Z" fill="url(#paint48_linear_122_130)"/>
<path d="M919.93 11.5856C921.356 11.5856 922.436 12.1906 923.17 13.4005C923.916 14.5971 924.29 16.3389 924.29 18.6257C924.29 20.9126 923.916 22.661 923.17 23.8709C922.436 25.0808 921.356 25.6858 919.93 25.6858C918.517 25.6858 917.437 25.0808 916.69 23.8709C915.943 22.661 915.57 20.9126 915.57 18.6257C915.57 16.3522 915.943 14.6104 916.69 13.4005C917.437 12.1906 918.517 11.5856 919.93 11.5856ZM916.99 18.6257C916.99 20.2478 917.137 21.5176 917.43 22.435L921.87 13.5999C921.403 12.975 920.756 12.6626 919.93 12.6626C919.01 12.6626 918.29 13.1545 917.77 14.1384C917.25 15.109 916.99 16.6048 916.99 18.6257ZM919.93 24.5889C920.863 24.5889 921.59 24.1036 922.11 23.133C922.63 22.1491 922.89 20.6467 922.89 18.6257C922.89 16.9106 922.723 15.581 922.39 14.637L917.95 23.5518C918.43 24.2432 919.09 24.5889 919.93 24.5889Z" fill="url(#paint49_linear_122_130)"/>
<path d="M921.13 47.2221H924.07V48.2792H916.45V47.2221H919.85V36.0138L916.61 37.9483L916.05 37.0509L920.05 34.5778H921.13V47.2221Z" fill="url(#paint50_linear_122_130)"/>
<path d="M921.13 70.015H924.07V71.072H916.45V70.015H919.85V58.8066L916.61 60.7411L916.05 59.8437L920.05 57.3706H921.13V70.015Z" fill="url(#paint51_linear_122_130)"/>
<path d="M919.93 79.964C921.356 79.964 922.436 80.569 923.17 81.7789C923.916 82.9755 924.29 84.7173 924.29 87.0041C924.29 89.291 923.916 91.0394 923.17 92.2493C922.436 93.4593 921.356 94.0642 919.93 94.0642C918.517 94.0642 917.437 93.4593 916.69 92.2493C915.943 91.0394 915.57 89.291 915.57 87.0041C915.57 84.7306 915.943 82.9888 916.69 81.7789C917.437 80.569 918.517 79.964 919.93 79.964ZM916.99 87.0041C916.99 88.6262 917.137 89.896 917.43 90.8134L921.87 81.9783C921.403 81.3534 920.756 81.041 919.93 81.041C919.01 81.041 918.29 81.5329 917.77 82.5168C917.25 83.4874 916.99 84.9832 916.99 87.0041ZM919.93 92.9673C920.863 92.9673 921.59 92.482 922.11 91.5114C922.63 90.5275 922.89 89.0251 922.89 87.0041C922.89 85.289 922.723 83.9594 922.39 83.0154L917.95 91.9302C918.43 92.6216 919.09 92.9673 919.93 92.9673Z" fill="url(#paint52_linear_122_130)"/>
<path d="M921.13 115.601H924.07V116.658H916.45V115.601H919.85V104.392L916.61 106.327L916.05 105.429L920.05 102.956H921.13V115.601Z" fill="url(#paint53_linear_122_130)"/>
<path d="M919.93 125.55C921.356 125.55 922.436 126.155 923.17 127.365C923.916 128.561 924.29 130.303 924.29 132.59C924.29 134.877 923.916 136.625 923.17 137.835C922.436 139.045 921.356 139.65 919.93 139.65C918.517 139.65 917.437 139.045 916.69 137.835C915.943 136.625 915.57 134.877 915.57 132.59C915.57 130.316 915.943 128.574 916.69 127.365C917.437 126.155 918.517 125.55 919.93 125.55ZM916.99 132.59C916.99 134.212 917.137 135.482 917.43 136.399L921.87 127.564C921.403 126.939 920.756 126.627 919.93 126.627C919.01 126.627 918.29 127.119 917.77 128.102C917.25 129.073 916.99 130.569 916.99 132.59ZM919.93 138.553C920.863 138.553 921.59 138.068 922.11 137.097C922.63 136.113 922.89 134.611 922.89 132.59C922.89 130.875 922.723 129.545 922.39 128.601L917.95 137.516C918.43 138.207 919.09 138.553 919.93 138.553Z" fill="url(#paint54_linear_122_130)"/>
<path d="M919.93 148.342C921.356 148.342 922.436 148.947 923.17 150.157C923.916 151.354 924.29 153.096 924.29 155.383C924.29 157.669 923.916 159.418 923.17 160.628C922.436 161.838 921.356 162.443 919.93 162.443C918.517 162.443 917.437 161.838 916.69 160.628C915.943 159.418 915.57 157.669 915.57 155.383C915.57 153.109 915.943 151.367 916.69 150.157C917.437 148.947 918.517 148.342 919.93 148.342ZM916.99 155.383C916.99 157.005 917.137 158.274 917.43 159.192L921.87 150.357C921.403 149.732 920.756 149.419 919.93 149.419C919.01 149.419 918.29 149.911 917.77 150.895C917.25 151.866 916.99 153.362 916.99 155.383ZM919.93 161.346C920.863 161.346 921.59 160.86 922.11 159.89C922.63 158.906 922.89 157.404 922.89 155.383C922.89 153.667 922.723 152.338 922.39 151.394L917.95 160.309C918.43 161 919.09 161.346 919.93 161.346Z" fill="url(#paint55_linear_122_130)"/>
<path d="M921.13 183.979H924.07V185.036H916.45V183.979H919.85V172.771L916.61 174.705L916.05 173.808L920.05 171.335H921.13V183.979Z" fill="url(#paint56_linear_122_130)"/>
<path d="M919.93 193.928C921.356 193.928 922.436 194.533 923.17 195.743C923.916 196.94 924.29 198.681 924.29 200.968C924.29 203.255 923.916 205.003 923.17 206.213C922.436 207.423 921.356 208.028 919.93 208.028C918.517 208.028 917.437 207.423 916.69 206.213C915.943 205.003 915.57 203.255 915.57 200.968C915.57 198.695 915.943 196.953 916.69 195.743C917.437 194.533 918.517 193.928 919.93 193.928ZM916.99 200.968C916.99 202.59 917.137 203.86 917.43 204.777L921.87 195.942C921.403 195.317 920.756 195.005 919.93 195.005C919.01 195.005 918.29 195.497 917.77 196.481C917.25 197.451 916.99 198.947 916.99 200.968ZM919.93 206.931C920.863 206.931 921.59 206.446 922.11 205.475C922.63 204.492 922.89 202.989 922.89 200.968C922.89 199.253 922.723 197.923 922.39 196.979L917.95 205.894C918.43 206.586 919.09 206.931 919.93 206.931Z" fill="url(#paint57_linear_122_130)"/>
<path d="M921.13 229.565H924.07V230.622H916.45V229.565H919.85V218.356L916.61 220.291L916.05 219.393L920.05 216.92H921.13V229.565Z" fill="url(#paint58_linear_122_130)"/>
<path d="M921.13 252.357H924.07V253.414H916.45V252.357H919.85V241.149L916.61 243.084L916.05 242.186L920.05 239.713H921.13V252.357Z" fill="url(#paint59_linear_122_130)"/>
<path d="M957.07 11.5856C958.497 11.5856 959.577 12.1906 960.31 13.4005C961.057 14.5971 961.43 16.3389 961.43 18.6257C961.43 20.9126 961.057 22.661 960.31 23.8709C959.577 25.0808 958.497 25.6858 957.07 25.6858C955.657 25.6858 954.577 25.0808 953.83 23.8709C953.084 22.661 952.71 20.9126 952.71 18.6257C952.71 16.3522 953.084 14.6104 953.83 13.4005C954.577 12.1906 955.657 11.5856 957.07 11.5856ZM954.13 18.6257C954.13 20.2478 954.277 21.5176 954.57 22.435L959.01 13.5999C958.543 12.975 957.897 12.6626 957.07 12.6626C956.15 12.6626 955.43 13.1545 954.91 14.1384C954.39 15.109 954.13 16.6048 954.13 18.6257ZM957.07 24.5889C958.003 24.5889 958.73 24.1036 959.25 23.133C959.77 22.1491 960.03 20.6467 960.03 18.6257C960.03 16.9106 959.863 15.581 959.53 14.637L955.09 23.5518C955.57 24.2432 956.23 24.5889 957.07 24.5889Z" fill="url(#paint60_linear_122_130)"/>
<path d="M958.27 47.2221H961.21V48.2792H953.59V47.2221H956.99V36.0138L953.75 37.9483L953.19 37.0509L957.19 34.5778H958.27V47.2221Z" fill="url(#paint61_linear_122_130)"/>
<path d="M957.07 57.1712C958.497 57.1712 959.577 57.7762 960.31 58.9861C961.057 60.1827 961.43 61.9245 961.43 64.2113C961.43 66.4982 961.057 68.2466 960.31 69.4565C959.577 70.6664 958.497 71.2714 957.07 71.2714C955.657 71.2714 954.577 70.6664 953.83 69.4565C953.084 68.2466 952.71 66.4982 952.71 64.2113C952.71 61.9378 953.084 60.196 953.83 58.9861C954.577 57.7762 955.657 57.1712 957.07 57.1712ZM954.13 64.2113C954.13 65.8334 954.277 67.1032 954.57 68.0206L959.01 59.1855C958.543 58.5606 957.897 58.2482 957.07 58.2482C956.15 58.2482 955.43 58.7401 954.91 59.724C954.39 60.6946 954.13 62.1904 954.13 64.2113ZM957.07 70.1745C958.003 70.1745 958.73 69.6892 959.25 68.7186C959.77 67.7347 960.03 66.2323 960.03 64.2113C960.03 62.4962 959.863 61.1666 959.53 60.2226L955.09 69.1374C955.57 69.8288 956.23 70.1745 957.07 70.1745Z" fill="url(#paint62_linear_122_130)"/>
<path d="M957.07 79.964C958.497 79.964 959.577 80.569 960.31 81.7789C961.057 82.9755 961.43 84.7173 961.43 87.0041C961.43 89.291 961.057 91.0394 960.31 92.2493C959.577 93.4593 958.497 94.0642 957.07 94.0642C955.657 94.0642 954.577 93.4593 953.83 92.2493C953.084 91.0394 952.71 89.291 952.71 87.0041C952.71 84.7306 953.084 82.9888 953.83 81.7789C954.577 80.569 955.657 79.964 957.07 79.964ZM954.13 87.0041C954.13 88.6262 954.277 89.896 954.57 90.8134L959.01 81.9783C958.543 81.3534 957.897 81.041 957.07 81.041C956.15 81.041 955.43 81.5329 954.91 82.5168C954.39 83.4874 954.13 84.9832 954.13 87.0041ZM957.07 92.9673C958.003 92.9673 958.73 92.482 959.25 91.5114C959.77 90.5275 960.03 89.0251 960.03 87.0041C960.03 85.289 959.863 83.9594 959.53 83.0154L955.09 91.9302C955.57 92.6216 956.23 92.9673 957.07 92.9673Z" fill="url(#paint63_linear_122_130)"/>
<path d="M958.27 115.601H961.21V116.658H953.59V115.601H956.99V104.392L953.75 106.327L953.19 105.429L957.19 102.956H958.27V115.601Z" fill="url(#paint64_linear_122_130)"/>
<path d="M957.07 125.55C958.497 125.55 959.577 126.155 960.31 127.365C961.057 128.561 961.43 130.303 961.43 132.59C961.43 134.877 961.057 136.625 960.31 137.835C959.577 139.045 958.497 139.65 957.07 139.65C955.657 139.65 954.577 139.045 953.83 137.835C953.084 136.625 952.71 134.877 952.71 132.59C952.71 130.316 953.084 128.574 953.83 127.365C954.577 126.155 955.657 125.55 957.07 125.55ZM954.13 132.59C954.13 134.212 954.277 135.482 954.57 136.399L959.01 127.564C958.543 126.939 957.897 126.627 957.07 126.627C956.15 126.627 955.43 127.119 954.91 128.102C954.39 129.073 954.13 130.569 954.13 132.59ZM957.07 138.553C958.003 138.553 958.73 138.068 959.25 137.097C959.77 136.113 960.03 134.611 960.03 132.59C960.03 130.875 959.863 129.545 959.53 128.601L955.09 137.516C955.57 138.207 956.23 138.553 957.07 138.553Z" fill="url(#paint65_linear_122_130)"/>
<path d="M958.27 161.186H961.21V162.243H953.59V161.186H956.99V149.978L953.75 151.912L953.19 151.015L957.19 148.542H958.27V161.186Z" fill="url(#paint66_linear_122_130)"/>
<path d="M957.07 171.135C958.497 171.135 959.577 171.74 960.31 172.95C961.057 174.147 961.43 175.888 961.43 178.175C961.43 180.462 961.057 182.211 960.31 183.421C959.577 184.63 958.497 185.235 957.07 185.235C955.657 185.235 954.577 184.63 953.83 183.421C953.084 182.211 952.71 180.462 952.71 178.175C952.71 175.902 953.084 174.16 953.83 172.95C954.577 171.74 955.657 171.135 957.07 171.135ZM954.13 178.175C954.13 179.797 954.277 181.067 954.57 181.985L959.01 173.15C958.543 172.525 957.897 172.212 957.07 172.212C956.15 172.212 955.43 172.704 954.91 173.688C954.39 174.659 954.13 176.154 954.13 178.175ZM957.07 184.139C958.003 184.139 958.73 183.653 959.25 182.683C959.77 181.699 960.03 180.196 960.03 178.175C960.03 176.46 959.863 175.131 959.53 174.187L955.09 183.101C955.57 183.793 956.23 184.139 957.07 184.139Z" fill="url(#paint67_linear_122_130)"/>
<path d="M957.07 193.928C958.497 193.928 959.577 194.533 960.31 195.743C961.057 196.94 961.43 198.681 961.43 200.968C961.43 203.255 961.057 205.003 960.31 206.213C959.577 207.423 958.497 208.028 957.07 208.028C955.657 208.028 954.577 207.423 953.83 206.213C953.084 205.003 952.71 203.255 952.71 200.968C952.71 198.695 953.084 196.953 953.83 195.743C954.577 194.533 955.657 193.928 957.07 193.928ZM954.13 200.968C954.13 202.59 954.277 203.86 954.57 204.777L959.01 195.942C958.543 195.317 957.897 195.005 957.07 195.005C956.15 195.005 955.43 195.497 954.91 196.481C954.39 197.451 954.13 198.947 954.13 200.968ZM957.07 206.931C958.003 206.931 958.73 206.446 959.25 205.475C959.77 204.492 960.03 202.989 960.03 200.968C960.03 199.253 959.863 197.923 959.53 196.979L955.09 205.894C955.57 206.586 956.23 206.931 957.07 206.931Z" fill="url(#paint68_linear_122_130)"/>
<path d="M958.27 229.565H961.21V230.622H953.59V229.565H956.99V218.356L953.75 220.291L953.19 219.393L957.19 216.92H958.27V229.565Z" fill="url(#paint69_linear_122_130)"/>
<path d="M957.07 239.514C958.497 239.514 959.577 240.119 960.31 241.329C961.057 242.525 961.43 244.267 961.43 246.554C961.43 248.841 961.057 250.589 960.31 251.799C959.577 253.009 958.497 253.614 957.07 253.614C955.657 253.614 954.577 253.009 953.83 251.799C953.084 250.589 952.71 248.841 952.71 246.554C952.71 244.28 953.084 242.538 953.83 241.329C954.577 240.119 955.657 239.514 957.07 239.514ZM954.13 246.554C954.13 248.176 954.277 249.446 954.57 250.363L959.01 241.528C958.543 240.903 957.897 240.591 957.07 240.591C956.15 240.591 955.43 241.083 954.91 242.066C954.39 243.037 954.13 244.533 954.13 246.554ZM957.07 252.517C958.003 252.517 958.73 252.032 959.25 251.061C959.77 250.077 960.03 248.575 960.03 246.554C960.03 244.839 959.863 243.509 959.53 242.565L955.09 251.48C955.57 252.171 956.23 252.517 957.07 252.517Z" fill="url(#paint70_linear_122_130)"/>
<path d="M958.27 275.15H961.21V276.207H953.59V275.15H956.99V263.942L953.75 265.876L953.19 264.979L957.19 262.506H958.27V275.15Z" fill="url(#paint71_linear_122_130)"/>
<path d="M958.27 297.943H961.21V299H953.59V297.943H956.99V286.735L953.75 288.669L953.19 287.772L957.19 285.299H958.27V297.943Z" fill="url(#paint72_linear_122_130)"/>
<path d="M901.36 34.3784C902.786 34.3784 903.866 34.9834 904.599 36.1933C905.346 37.3899 905.719 39.1317 905.719 41.4185C905.719 43.7054 905.346 45.4538 904.599 46.6637C903.866 47.8736 902.786 48.4786 901.36 48.4786C899.946 48.4786 898.867 47.8736 898.12 46.6637C897.373 45.4538 897 43.7054 897 41.4185C897 39.145 897.373 37.4032 898.12 36.1933C898.867 34.9834 899.946 34.3784 901.36 34.3784ZM898.42 41.4185C898.42 43.0406 898.567 44.3104 898.86 45.2278L903.3 36.3927C902.833 35.7678 902.186 35.4554 901.36 35.4554C900.44 35.4554 899.72 35.9473 899.2 36.9312C898.68 37.9018 898.42 39.3976 898.42 41.4185ZM901.36 47.3817C902.293 47.3817 903.02 46.8964 903.54 45.9258C904.06 44.9419 904.319 43.4395 904.319 41.4185C904.319 39.7034 904.153 38.3738 903.82 37.4298L899.38 46.3446C899.86 47.036 900.52 47.3817 901.36 47.3817Z" fill="url(#paint73_linear_122_130)"/>
<path d="M901.36 57.1712C902.786 57.1712 903.866 57.7762 904.599 58.9861C905.346 60.1827 905.719 61.9245 905.719 64.2113C905.719 66.4982 905.346 68.2466 904.599 69.4565C903.866 70.6664 902.786 71.2714 901.36 71.2714C899.946 71.2714 898.867 70.6664 898.12 69.4565C897.373 68.2466 897 66.4982 897 64.2113C897 61.9378 897.373 60.196 898.12 58.9861C898.867 57.7762 899.946 57.1712 901.36 57.1712ZM898.42 64.2113C898.42 65.8334 898.567 67.1032 898.86 68.0206L903.3 59.1855C902.833 58.5606 902.186 58.2482 901.36 58.2482C900.44 58.2482 899.72 58.7401 899.2 59.724C898.68 60.6946 898.42 62.1904 898.42 64.2113ZM901.36 70.1745C902.293 70.1745 903.02 69.6892 903.54 68.7186C904.06 67.7347 904.319 66.2323 904.319 64.2113C904.319 62.4962 904.153 61.1666 903.82 60.2226L899.38 69.1374C899.86 69.8288 900.52 70.1745 901.36 70.1745Z" fill="url(#paint74_linear_122_130)"/>
<path d="M902.56 92.8078H905.499V93.8648H897.88V92.8078H901.28V81.5994L898.04 83.5339L897.48 82.6365L901.48 80.1635H902.56V92.8078Z" fill="url(#paint75_linear_122_130)"/>
<path d="M901.36 102.757C902.786 102.757 903.866 103.362 904.599 104.572C905.346 105.768 905.719 107.51 905.719 109.797C905.719 112.084 905.346 113.832 904.599 115.042C903.866 116.252 902.786 116.857 901.36 116.857C899.946 116.857 898.867 116.252 898.12 115.042C897.373 113.832 897 112.084 897 109.797C897 107.523 897.373 105.782 898.12 104.572C898.867 103.362 899.946 102.757 901.36 102.757ZM898.42 109.797C898.42 111.419 898.567 112.689 898.86 113.606L903.3 104.771C902.833 104.146 902.186 103.834 901.36 103.834C900.44 103.834 899.72 104.326 899.2 105.31C898.68 106.28 898.42 107.776 898.42 109.797ZM901.36 115.76C902.293 115.76 903.02 115.275 903.54 114.304C904.06 113.32 904.319 111.818 904.319 109.797C904.319 108.082 904.153 106.752 903.82 105.808L899.38 114.723C899.86 115.414 900.52 115.76 901.36 115.76Z" fill="url(#paint76_linear_122_130)"/>
<path d="M902.56 138.393H905.499V139.45H897.88V138.393H901.28V127.185L898.04 129.12L897.48 128.222L901.48 125.749H902.56V138.393Z" fill="url(#paint77_linear_122_130)"/>
<path d="M902.56 161.186H905.499V162.243H897.88V161.186H901.28V149.978L898.04 151.912L897.48 151.015L901.48 148.542H902.56V161.186Z" fill="url(#paint78_linear_122_130)"/>
<path d="M939.7 1.63655H942.64V2.69356H935.02V1.63655H938.42V-9.57181L935.18 -7.63727L934.62 -8.53474L938.62 -11.0078H939.7V1.63655Z" fill="url(#paint79_linear_122_130)"/>
<path d="M938.5 11.5856C939.927 11.5856 941.006 12.1906 941.74 13.4005C942.486 14.5971 942.86 16.3389 942.86 18.6257C942.86 20.9126 942.486 22.661 941.74 23.8709C941.006 25.0808 939.927 25.6858 938.5 25.6858C937.087 25.6858 936.007 25.0808 935.26 23.8709C934.514 22.661 934.14 20.9126 934.14 18.6257C934.14 16.3522 934.514 14.6104 935.26 13.4005C936.007 12.1906 937.087 11.5856 938.5 11.5856ZM935.56 18.6257C935.56 20.2478 935.707 21.5176 936 22.435L940.44 13.5999C939.973 12.975 939.327 12.6626 938.5 12.6626C937.58 12.6626 936.86 13.1545 936.34 14.1384C935.82 15.109 935.56 16.6048 935.56 18.6257ZM938.5 24.5889C939.433 24.5889 940.16 24.1036 940.68 23.133C941.2 22.1491 941.46 20.6467 941.46 18.6257C941.46 16.9106 941.293 15.581 940.96 14.637L936.52 23.5518C937 24.2432 937.66 24.5889 938.5 24.5889Z" fill="url(#paint80_linear_122_130)"/>
<path d="M939.7 47.2221H942.64V48.2792H935.02V47.2221H938.42V36.0138L935.18 37.9483L934.62 37.0509L938.62 34.5778H939.7V47.2221Z" fill="url(#paint81_linear_122_130)"/>
<path d="M939.7 70.015H942.64V71.072H935.02V70.015H938.42V58.8066L935.18 60.7411L934.62 59.8437L938.62 57.3706H939.7V70.015Z" fill="url(#paint82_linear_122_130)"/>
<path d="M938.5 79.964C939.927 79.964 941.006 80.569 941.74 81.7789C942.486 82.9755 942.86 84.7173 942.86 87.0041C942.86 89.291 942.486 91.0394 941.74 92.2493C941.006 93.4593 939.927 94.0642 938.5 94.0642C937.087 94.0642 936.007 93.4593 935.26 92.2493C934.514 91.0394 934.14 89.291 934.14 87.0041C934.14 84.7306 934.514 82.9888 935.26 81.7789C936.007 80.569 937.087 79.964 938.5 79.964ZM935.56 87.0041C935.56 88.6262 935.707 89.896 936 90.8134L940.44 81.9783C939.973 81.3534 939.327 81.041 938.5 81.041C937.58 81.041 936.86 81.5329 936.34 82.5168C935.82 83.4874 935.56 84.9832 935.56 87.0041ZM938.5 92.9673C939.433 92.9673 940.16 92.482 940.68 91.5114C941.2 90.5275 941.46 89.0251 941.46 87.0041C941.46 85.289 941.293 83.9594 940.96 83.0154L936.52 91.9302C937 92.6216 937.66 92.9673 938.5 92.9673Z" fill="url(#paint83_linear_122_130)"/>
<path d="M939.7 115.601H942.64V116.658H935.02V115.601H938.42V104.392L935.18 106.327L934.62 105.429L938.62 102.956H939.7V115.601Z" fill="url(#paint84_linear_122_130)"/>
<path d="M939.7 138.393H942.64V139.45H935.02V138.393H938.42V127.185L935.18 129.12L934.62 128.222L938.62 125.749H939.7V138.393Z" fill="url(#paint85_linear_122_130)"/>
<path d="M938.5 148.342C939.927 148.342 941.006 148.947 941.74 150.157C942.486 151.354 942.86 153.096 942.86 155.383C942.86 157.669 942.486 159.418 941.74 160.628C941.006 161.838 939.927 162.443 938.5 162.443C937.087 162.443 936.007 161.838 935.26 160.628C934.514 159.418 934.14 157.669 934.14 155.383C934.14 153.109 934.514 151.367 935.26 150.157C936.007 148.947 937.087 148.342 938.5 148.342ZM935.56 155.383C935.56 157.005 935.707 158.274 936 159.192L940.44 150.357C939.973 149.732 939.327 149.419 938.5 149.419C937.58 149.419 936.86 149.911 936.34 150.895C935.82 151.866 935.56 153.362 935.56 155.383ZM938.5 161.346C939.433 161.346 940.16 160.86 940.68 159.89C941.2 158.906 941.46 157.404 941.46 155.383C941.46 153.667 941.293 152.338 940.96 151.394L936.52 160.309C937 161 937.66 161.346 938.5 161.346Z" fill="url(#paint86_linear_122_130)"/>
<path d="M939.7 183.979H942.64V185.036H935.02V183.979H938.42V172.771L935.18 174.705L934.62 173.808L938.62 171.335H939.7V183.979Z" fill="url(#paint87_linear_122_130)"/>
<path d="M938.5 193.928C939.927 193.928 941.006 194.533 941.74 195.743C942.486 196.94 942.86 198.681 942.86 200.968C942.86 203.255 942.486 205.003 941.74 206.213C941.006 207.423 939.927 208.028 938.5 208.028C937.087 208.028 936.007 207.423 935.26 206.213C934.514 205.003 934.14 203.255 934.14 200.968C934.14 198.695 934.514 196.953 935.26 195.743C936.007 194.533 937.087 193.928 938.5 193.928ZM935.56 200.968C935.56 202.59 935.707 203.86 936 204.777L940.44 195.942C939.973 195.317 939.327 195.005 938.5 195.005C937.58 195.005 936.86 195.497 936.34 196.481C935.82 197.451 935.56 198.947 935.56 200.968ZM938.5 206.931C939.433 206.931 940.16 206.446 940.68 205.475C941.2 204.492 941.46 202.989 941.46 200.968C941.46 199.253 941.293 197.923 940.96 196.979L936.52 205.894C937 206.586 937.66 206.931 938.5 206.931Z" fill="url(#paint88_linear_122_130)"/>
<path d="M975.64 -11.2072C977.067 -11.2072 978.147 -10.6022 978.88 -9.39232C979.627 -8.1957 980 -6.45395 980 -4.16707C980 -1.88019 979.627 -0.131794 978.88 1.07812C978.147 2.28804 977.067 2.893 975.64 2.893C974.227 2.893 973.147 2.28804 972.401 1.07812C971.654 -0.131794 971.281 -1.88019 971.281 -4.16707C971.281 -6.44065 971.654 -8.1824 972.401 -9.39232C973.147 -10.6022 974.227 -11.2072 975.64 -11.2072ZM972.7 -4.16707C972.7 -2.54498 972.847 -1.27523 973.14 -0.357821L977.58 -9.19288C977.114 -9.81779 976.467 -10.1302 975.64 -10.1302C974.72 -10.1302 974 -9.63829 973.48 -8.6544C972.96 -7.68381 972.7 -6.18803 972.7 -4.16707ZM975.64 1.7961C976.574 1.7961 977.3 1.3108 977.82 0.340208C978.34 -0.643681 978.6 -2.14611 978.6 -4.16707C978.6 -5.88223 978.433 -7.21181 978.1 -8.15581L973.66 0.759022C974.14 1.4504 974.8 1.7961 975.64 1.7961Z" fill="url(#paint89_linear_122_130)"/>
<path d="M976.84 24.4293H979.78V25.4864H972.161V24.4293H975.56V13.221L972.321 15.1555L971.761 14.2581L975.76 11.785H976.84V24.4293Z" fill="url(#paint90_linear_122_130)"/>
<path d="M976.84 47.2221H979.78V48.2792H972.161V47.2221H975.56V36.0138L972.321 37.9483L971.761 37.0509L975.76 34.5778H976.84V47.2221Z" fill="url(#paint91_linear_122_130)"/>
<path d="M975.64 57.1712C977.067 57.1712 978.147 57.7762 978.88 58.9861C979.627 60.1827 980 61.9245 980 64.2113C980 66.4982 979.627 68.2466 978.88 69.4565C978.147 70.6664 977.067 71.2714 975.64 71.2714C974.227 71.2714 973.147 70.6664 972.401 69.4565C971.654 68.2466 971.281 66.4982 971.281 64.2113C971.281 61.9378 971.654 60.196 972.401 58.9861C973.147 57.7762 974.227 57.1712 975.64 57.1712ZM972.7 64.2113C972.7 65.8334 972.847 67.1032 973.14 68.0206L977.58 59.1855C977.114 58.5606 976.467 58.2482 975.64 58.2482C974.72 58.2482 974 58.7401 973.48 59.724C972.96 60.6946 972.7 62.1904 972.7 64.2113ZM975.64 70.1745C976.574 70.1745 977.3 69.6892 977.82 68.7186C978.34 67.7347 978.6 66.2323 978.6 64.2113C978.6 62.4962 978.433 61.1666 978.1 60.2226L973.66 69.1374C974.14 69.8288 974.8 70.1745 975.64 70.1745Z" fill="url(#paint92_linear_122_130)"/>
<path d="M975.64 79.964C977.067 79.964 978.147 80.569 978.88 81.7789C979.627 82.9755 980 84.7173 980 87.0041C980 89.291 979.627 91.0394 978.88 92.2493C978.147 93.4593 977.067 94.0642 975.64 94.0642C974.227 94.0642 973.147 93.4593 972.401 92.2493C971.654 91.0394 971.281 89.291 971.281 87.0041C971.281 84.7306 971.654 82.9888 972.401 81.7789C973.147 80.569 974.227 79.964 975.64 79.964ZM972.7 87.0041C972.7 88.6262 972.847 89.896 973.14 90.8134L977.58 81.9783C977.114 81.3534 976.467 81.041 975.64 81.041C974.72 81.041 974 81.5329 973.48 82.5168C972.96 83.4874 972.7 84.9832 972.7 87.0041ZM975.64 92.9673C976.574 92.9673 977.3 92.482 977.82 91.5114C978.34 90.5275 978.6 89.0251 978.6 87.0041C978.6 85.289 978.433 83.9594 978.1 83.0154L973.66 91.9302C974.14 92.6216 974.8 92.9673 975.64 92.9673Z" fill="url(#paint93_linear_122_130)"/>
</g>
</g>
<rect x="0.5" y="0.5" width="1023" height="752" stroke="black"/>
<defs>
<filter id="filter0_f_122_130" x="-558.19" y="-720.19" width="2141.38" height="1500.38" filterUnits="userSpaceOnUse" color-interpolation-filters="sRGB">
<feFlood flood-opacity="0" result="BackgroundImageFix"/>
<feBlend mode="normal" in="SourceGraphic" in2="BackgroundImageFix" result="shape"/>
<feGaussianBlur stdDeviation="200.095" result="effect1_foregroundBlur_122_130"/>
</filter>
<linearGradient id="paint0_linear_122_130" x1="52.5" y1="266" x2="52.5" y2="577.381" gradientUnits="userSpaceOnUse">
<stop stop-color="#F7DD43"/>
<stop offset="1" stop-color="#F7DD43" stop-opacity="0"/>
</linearGradient>
<linearGradient id="paint1_linear_122_130" x1="52.5" y1="266" x2="52.5" y2="577.381" gradientUnits="userSpaceOnUse">
<stop stop-color="#F7DD43"/>
<stop offset="1" stop-color="#F7DD43" stop-opacity="0"/>
</linearGradient>
<linearGradient id="paint2_linear_122_130" x1="52.5" y1="266" x2="52.5" y2="577.381" gradientUnits="userSpaceOnUse">
<stop stop-color="#F7DD43"/>
<stop offset="1" stop-color="#F7DD43" stop-opacity="0"/>
</linearGradient>
<linearGradient id="paint3_linear_122_130" x1="52.5" y1="266" x2="52.5" y2="577.381" gradientUnits="userSpaceOnUse">
<stop stop-color="#F7DD43"/>
<stop offset="1" stop-color="#F7DD43" stop-opacity="0"/>
</linearGradient>
<linearGradient id="paint4_linear_122_130" x1="52.5" y1="266" x2="52.5" y2="577.381" gradientUnits="userSpaceOnUse">
<stop stop-color="#F7DD43"/>
<stop offset="1" stop-color="#F7DD43" stop-opacity="0"/>
</linearGradient>
<linearGradient id="paint5_linear_122_130" x1="52.5" y1="266" x2="52.5" y2="577.381" gradientUnits="userSpaceOnUse">
<stop stop-color="#F7DD43"/>
<stop offset="1" stop-color="#F7DD43" stop-opacity="0"/>
</linearGradient>
<linearGradient id="paint6_linear_122_130" x1="52.5" y1="266" x2="52.5" y2="577.381" gradientUnits="userSpaceOnUse">
<stop stop-color="#F7DD43"/>
<stop offset="1" stop-color="#F7DD43" stop-opacity="0"/>
</linearGradient>
<linearGradient id="paint7_linear_122_130" x1="52.5" y1="266" x2="52.5" y2="577.381" gradientUnits="userSpaceOnUse">
<stop stop-color="#F7DD43"/>
<stop offset="1" stop-color="#F7DD43" stop-opacity="0"/>
</linearGradient>
<linearGradient id="paint8_linear_122_130" x1="52.5" y1="266" x2="52.5" y2="577.381" gradientUnits="userSpaceOnUse">
<stop stop-color="#F7DD43"/>
<stop offset="1" stop-color="#F7DD43" stop-opacity="0"/>
</linearGradient>
<linearGradient id="paint9_linear_122_130" x1="52.5" y1="266" x2="52.5" y2="577.381" gradientUnits="userSpaceOnUse">
<stop stop-color="#F7DD43"/>
<stop offset="1" stop-color="#F7DD43" stop-opacity="0"/>
</linearGradient>
<linearGradient id="paint10_linear_122_130" x1="52.5" y1="266" x2="52.5" y2="577.381" gradientUnits="userSpaceOnUse">
<stop stop-color="#F7DD43"/>
<stop offset="1" stop-color="#F7DD43" stop-opacity="0"/>
</linearGradient>
<linearGradient id="paint11_linear_122_130" x1="52.5" y1="266" x2="52.5" y2="577.381" gradientUnits="userSpaceOnUse">
<stop stop-color="#F7DD43"/>
<stop offset="1" stop-color="#F7DD43" stop-opacity="0"/>
</linearGradient>
<linearGradient id="paint12_linear_122_130" x1="52.5" y1="266" x2="52.5" y2="577.381" gradientUnits="userSpaceOnUse">
<stop stop-color="#F7DD43"/>
<stop offset="1" stop-color="#F7DD43" stop-opacity="0"/>
</linearGradient>
<linearGradient id="paint13_linear_122_130" x1="52.5" y1="266" x2="52.5" y2="577.381" gradientUnits="userSpaceOnUse">
<stop stop-color="#F7DD43"/>
<stop offset="1" stop-color="#F7DD43" stop-opacity="0"/>
</linearGradient>
<linearGradient id="paint14_linear_122_130" x1="52.5" y1="266" x2="52.5" y2="577.381" gradientUnits="userSpaceOnUse">
<stop stop-color="#F7DD43"/>
<stop offset="1" stop-color="#F7DD43" stop-opacity="0"/>
</linearGradient>
<linearGradient id="paint15_linear_122_130" x1="52.5" y1="266" x2="52.5" y2="577.381" gradientUnits="userSpaceOnUse">
<stop stop-color="#F7DD43"/>
<stop offset="1" stop-color="#F7DD43" stop-opacity="0"/>
</linearGradient>
<linearGradient id="paint16_linear_122_130" x1="52.5" y1="266" x2="52.5" y2="577.381" gradientUnits="userSpaceOnUse">
<stop stop-color="#F7DD43"/>
<stop offset="1" stop-color="#F7DD43" stop-opacity="0"/>
</linearGradient>
<linearGradient id="paint17_linear_122_130" x1="52.5" y1="266" x2="52.5" y2="577.381" gradientUnits="userSpaceOnUse">
<stop stop-color="#F7DD43"/>
<stop offset="1" stop-color="#F7DD43" stop-opacity="0"/>
</linearGradient>
<linearGradient id="paint18_linear_122_130" x1="52.5" y1="266" x2="52.5" y2="577.381" gradientUnits="userSpaceOnUse">
<stop stop-color="#F7DD43"/>
<stop offset="1" stop-color="#F7DD43" stop-opacity="0"/>
</linearGradient>
<linearGradient id="paint19_linear_122_130" x1="52.5" y1="266" x2="52.5" y2="577.381" gradientUnits="userSpaceOnUse">
<stop stop-color="#F7DD43"/>
<stop offset="1" stop-color="#F7DD43" stop-opacity="0"/>
</linearGradient>
<linearGradient id="paint20_linear_122_130" x1="52.5" y1="266" x2="52.5" y2="577.381" gradientUnits="userSpaceOnUse">
<stop stop-color="#F7DD43"/>
<stop offset="1" stop-color="#F7DD43" stop-opacity="0"/>
</linearGradient>
<linearGradient id="paint21_linear_122_130" x1="52.5" y1="266" x2="52.5" y2="577.381" gradientUnits="userSpaceOnUse">
<stop stop-color="#F7DD43"/>
<stop offset="1" stop-color="#F7DD43" stop-opacity="0"/>
</linearGradient>
<linearGradient id="paint22_linear_122_130" x1="52.5" y1="266" x2="52.5" y2="577.381" gradientUnits="userSpaceOnUse">
<stop stop-color="#F7DD43"/>
<stop offset="1" stop-color="#F7DD43" stop-opacity="0"/>
</linearGradient>
<linearGradient id="paint23_linear_122_130" x1="52.5" y1="266" x2="52.5" y2="577.381" gradientUnits="userSpaceOnUse">
<stop stop-color="#F7DD43"/>
<stop offset="1" stop-color="#F7DD43" stop-opacity="0"/>
</linearGradient>
<linearGradient id="paint24_linear_122_130" x1="52.5" y1="266" x2="52.5" y2="577.381" gradientUnits="userSpaceOnUse">
<stop stop-color="#F7DD43"/>
<stop offset="1" stop-color="#F7DD43" stop-opacity="0"/>
</linearGradient>
<linearGradient id="paint25_linear_122_130" x1="52.5" y1="266" x2="52.5" y2="577.381" gradientUnits="userSpaceOnUse">
<stop stop-color="#F7DD43"/>
<stop offset="1" stop-color="#F7DD43" stop-opacity="0"/>
</linearGradient>
<linearGradient id="paint26_linear_122_130" x1="52.5" y1="266" x2="52.5" y2="577.381" gradientUnits="userSpaceOnUse">
<stop stop-color="#F7DD43"/>
<stop offset="1" stop-color="#F7DD43" stop-opacity="0"/>
</linearGradient>
<linearGradient id="paint27_linear_122_130" x1="52.5" y1="266" x2="52.5" y2="577.381" gradientUnits="userSpaceOnUse">
<stop stop-color="#F7DD43"/>
<stop offset="1" stop-color="#F7DD43" stop-opacity="0"/>
</linearGradient>
<linearGradient id="paint28_linear_122_130" x1="52.5" y1="266" x2="52.5" y2="577.381" gradientUnits="userSpaceOnUse">
<stop stop-color="#F7DD43"/>
<stop offset="1" stop-color="#F7DD43" stop-opacity="0"/>
</linearGradient>
<linearGradient id="paint29_linear_122_130" x1="52.5" y1="266" x2="52.5" y2="577.381" gradientUnits="userSpaceOnUse">
<stop stop-color="#F7DD43"/>
<stop offset="1" stop-color="#F7DD43" stop-opacity="0"/>
</linearGradient>
<linearGradient id="paint30_linear_122_130" x1="52.5" y1="266" x2="52.5" y2="577.381" gradientUnits="userSpaceOnUse">
<stop stop-color="#F7DD43"/>
<stop offset="1" stop-color="#F7DD43" stop-opacity="0"/>
</linearGradient>
<linearGradient id="paint31_linear_122_130" x1="52.5" y1="266" x2="52.5" y2="577.381" gradientUnits="userSpaceOnUse">
<stop stop-color="#F7DD43"/>
<stop offset="1" stop-color="#F7DD43" stop-opacity="0"/>
</linearGradient>
<linearGradient id="paint32_linear_122_130" x1="52.5" y1="266" x2="52.5" y2="577.381" gradientUnits="userSpaceOnUse">
<stop stop-color="#F7DD43"/>
<stop offset="1" stop-color="#F7DD43" stop-opacity="0"/>
</linearGradient>
<linearGradient id="paint33_linear_122_130" x1="52.5" y1="266" x2="52.5" y2="577.381" gradientUnits="userSpaceOnUse">
<stop stop-color="#F7DD43"/>
<stop offset="1" stop-color="#F7DD43" stop-opacity="0"/>
</linearGradient>
<linearGradient id="paint34_linear_122_130" x1="52.5" y1="266" x2="52.5" y2="577.381" gradientUnits="userSpaceOnUse">
<stop stop-color="#F7DD43"/>
<stop offset="1" stop-color="#F7DD43" stop-opacity="0"/>
</linearGradient>
<linearGradient id="paint35_linear_122_130" x1="52.5" y1="266" x2="52.5" y2="577.381" gradientUnits="userSpaceOnUse">
<stop stop-color="#F7DD43"/>
<stop offset="1" stop-color="#F7DD43" stop-opacity="0"/>
</linearGradient>
<linearGradient id="paint36_linear_122_130" x1="52.5" y1="266" x2="52.5" y2="577.381" gradientUnits="userSpaceOnUse">
<stop stop-color="#F7DD43"/>
<stop offset="1" stop-color="#F7DD43" stop-opacity="0"/>
</linearGradient>
<linearGradient id="paint37_linear_122_130" x1="52.5" y1="266" x2="52.5" y2="577.381" gradientUnits="userSpaceOnUse">
<stop stop-color="#F7DD43"/>
<stop offset="1" stop-color="#F7DD43" stop-opacity="0"/>
</linearGradient>
<linearGradient id="paint38_linear_122_130" x1="52.5" y1="266" x2="52.5" y2="577.381" gradientUnits="userSpaceOnUse">
<stop stop-color="#F7DD43"/>
<stop offset="1" stop-color="#F7DD43" stop-opacity="0"/>
</linearGradient>
<linearGradient id="paint39_linear_122_130" x1="52.5" y1="266" x2="52.5" y2="577.381" gradientUnits="userSpaceOnUse">
<stop stop-color="#F7DD43"/>
<stop offset="1" stop-color="#F7DD43" stop-opacity="0"/>
</linearGradient>
<linearGradient id="paint40_linear_122_130" x1="52.5" y1="266" x2="52.5" y2="577.381" gradientUnits="userSpaceOnUse">
<stop stop-color="#F7DD43"/>
<stop offset="1" stop-color="#F7DD43" stop-opacity="0"/>
</linearGradient>
<linearGradient id="paint41_linear_122_130" x1="52.5" y1="266" x2="52.5" y2="577.381" gradientUnits="userSpaceOnUse">
<stop stop-color="#F7DD43"/>
<stop offset="1" stop-color="#F7DD43" stop-opacity="0"/>
</linearGradient>
<linearGradient id="paint42_linear_122_130" x1="52.5" y1="266" x2="52.5" y2="577.381" gradientUnits="userSpaceOnUse">
<stop stop-color="#F7DD43"/>
<stop offset="1" stop-color="#F7DD43" stop-opacity="0"/>
</linearGradient>
<linearGradient id="paint43_linear_122_130" x1="52.5" y1="266" x2="52.5" y2="577.381" gradientUnits="userSpaceOnUse">
<stop stop-color="#F7DD43"/>
<stop offset="1" stop-color="#F7DD43" stop-opacity="0"/>
</linearGradient>
<linearGradient id="paint44_linear_122_130" x1="52.5" y1="266" x2="52.5" y2="577.381" gradientUnits="userSpaceOnUse">
<stop stop-color="#F7DD43"/>
<stop offset="1" stop-color="#F7DD43" stop-opacity="0"/>
</linearGradient>
<linearGradient id="paint45_linear_122_130" x1="52.5" y1="266" x2="52.5" y2="577.381" gradientUnits="userSpaceOnUse">
<stop stop-color="#F7DD43"/>
<stop offset="1" stop-color="#F7DD43" stop-opacity="0"/>
</linearGradient>
<linearGradient id="paint46_linear_122_130" x1="52.5" y1="266" x2="52.5" y2="577.381" gradientUnits="userSpaceOnUse">
<stop stop-color="#F7DD43"/>
<stop offset="1" stop-color="#F7DD43" stop-opacity="0"/>
</linearGradient>
<linearGradient id="paint47_linear_122_130" x1="938.5" y1="-34" x2="938.5" y2="264.818" gradientUnits="userSpaceOnUse">
<stop stop-color="#F7DD43"/>
<stop offset="1" stop-color="#F7DD43" stop-opacity="0"/>
</linearGradient>
<linearGradient id="paint48_linear_122_130" x1="938.5" y1="-34" x2="938.5" y2="264.818" gradientUnits="userSpaceOnUse">
<stop stop-color="#F7DD43"/>
<stop offset="1" stop-color="#F7DD43" stop-opacity="0"/>
</linearGradient>
<linearGradient id="paint49_linear_122_130" x1="938.5" y1="-34" x2="938.5" y2="264.818" gradientUnits="userSpaceOnUse">
<stop stop-color="#F7DD43"/>
<stop offset="1" stop-color="#F7DD43" stop-opacity="0"/>
</linearGradient>
<linearGradient id="paint50_linear_122_130" x1="938.5" y1="-34" x2="938.5" y2="264.818" gradientUnits="userSpaceOnUse">
<stop stop-color="#F7DD43"/>
<stop offset="1" stop-color="#F7DD43" stop-opacity="0"/>
</linearGradient>
<linearGradient id="paint51_linear_122_130" x1="938.5" y1="-34" x2="938.5" y2="264.818" gradientUnits="userSpaceOnUse">
<stop stop-color="#F7DD43"/>
<stop offset="1" stop-color="#F7DD43" stop-opacity="0"/>
</linearGradient>
<linearGradient id="paint52_linear_122_130" x1="938.5" y1="-34" x2="938.5" y2="264.818" gradientUnits="userSpaceOnUse">
<stop stop-color="#F7DD43"/>
<stop offset="1" stop-color="#F7DD43" stop-opacity="0"/>
</linearGradient>
<linearGradient id="paint53_linear_122_130" x1="938.5" y1="-34" x2="938.5" y2="264.818" gradientUnits="userSpaceOnUse">
<stop stop-color="#F7DD43"/>
<stop offset="1" stop-color="#F7DD43" stop-opacity="0"/>
</linearGradient>
<linearGradient id="paint54_linear_122_130" x1="938.5" y1="-34" x2="938.5" y2="264.818" gradientUnits="userSpaceOnUse">
<stop stop-color="#F7DD43"/>
<stop offset="1" stop-color="#F7DD43" stop-opacity="0"/>
</linearGradient>
<linearGradient id="paint55_linear_122_130" x1="938.5" y1="-34" x2="938.5" y2="264.818" gradientUnits="userSpaceOnUse">
<stop stop-color="#F7DD43"/>
<stop offset="1" stop-color="#F7DD43" stop-opacity="0"/>
</linearGradient>
<linearGradient id="paint56_linear_122_130" x1="938.5" y1="-34" x2="938.5" y2="264.818" gradientUnits="userSpaceOnUse">
<stop stop-color="#F7DD43"/>
<stop offset="1" stop-color="#F7DD43" stop-opacity="0"/>
</linearGradient>
<linearGradient id="paint57_linear_122_130" x1="938.5" y1="-34" x2="938.5" y2="264.818" gradientUnits="userSpaceOnUse">
<stop stop-color="#F7DD43"/>
<stop offset="1" stop-color="#F7DD43" stop-opacity="0"/>
</linearGradient>
<linearGradient id="paint58_linear_122_130" x1="938.5" y1="-34" x2="938.5" y2="264.818" gradientUnits="userSpaceOnUse">
<stop stop-color="#F7DD43"/>
<stop offset="1" stop-color="#F7DD43" stop-opacity="0"/>
</linearGradient>
<linearGradient id="paint59_linear_122_130" x1="938.5" y1="-34" x2="938.5" y2="264.818" gradientUnits="userSpaceOnUse">
<stop stop-color="#F7DD43"/>
<stop offset="1" stop-color="#F7DD43" stop-opacity="0"/>
</linearGradient>
<linearGradient id="paint60_linear_122_130" x1="938.5" y1="-34" x2="938.5" y2="264.818" gradientUnits="userSpaceOnUse">
<stop stop-color="#F7DD43"/>
<stop offset="1" stop-color="#F7DD43" stop-opacity="0"/>
</linearGradient>
<linearGradient id="paint61_linear_122_130" x1="938.5" y1="-34" x2="938.5" y2="264.818" gradientUnits="userSpaceOnUse">
<stop stop-color="#F7DD43"/>
<stop offset="1" stop-color="#F7DD43" stop-opacity="0"/>
</linearGradient>
<linearGradient id="paint62_linear_122_130" x1="938.5" y1="-34" x2="938.5" y2="264.818" gradientUnits="userSpaceOnUse">
<stop stop-color="#F7DD43"/>
<stop offset="1" stop-color="#F7DD43" stop-opacity="0"/>
</linearGradient>
<linearGradient id="paint63_linear_122_130" x1="938.5" y1="-34" x2="938.5" y2="264.818" gradientUnits="userSpaceOnUse">
<stop stop-color="#F7DD43"/>
<stop offset="1" stop-color="#F7DD43" stop-opacity="0"/>
</linearGradient>
<linearGradient id="paint64_linear_122_130" x1="938.5" y1="-34" x2="938.5" y2="264.818" gradientUnits="userSpaceOnUse">
<stop stop-color="#F7DD43"/>
<stop offset="1" stop-color="#F7DD43" stop-opacity="0"/>
</linearGradient>
<linearGradient id="paint65_linear_122_130" x1="938.5" y1="-34" x2="938.5" y2="264.818" gradientUnits="userSpaceOnUse">
<stop stop-color="#F7DD43"/>
<stop offset="1" stop-color="#F7DD43" stop-opacity="0"/>
</linearGradient>
<linearGradient id="paint66_linear_122_130" x1="938.5" y1="-34" x2="938.5" y2="264.818" gradientUnits="userSpaceOnUse">
<stop stop-color="#F7DD43"/>
<stop offset="1" stop-color="#F7DD43" stop-opacity="0"/>
</linearGradient>
<linearGradient id="paint67_linear_122_130" x1="938.5" y1="-34" x2="938.5" y2="264.818" gradientUnits="userSpaceOnUse">
<stop stop-color="#F7DD43"/>
<stop offset="1" stop-color="#F7DD43" stop-opacity="0"/>
</linearGradient>
<linearGradient id="paint68_linear_122_130" x1="938.5" y1="-34" x2="938.5" y2="264.818" gradientUnits="userSpaceOnUse">
<stop stop-color="#F7DD43"/>
<stop offset="1" stop-color="#F7DD43" stop-opacity="0"/>
</linearGradient>
<linearGradient id="paint69_linear_122_130" x1="938.5" y1="-34" x2="938.5" y2="264.818" gradientUnits="userSpaceOnUse">
<stop stop-color="#F7DD43"/>
<stop offset="1" stop-color="#F7DD43" stop-opacity="0"/>
</linearGradient>
<linearGradient id="paint70_linear_122_130" x1="938.5" y1="-34" x2="938.5" y2="264.818" gradientUnits="userSpaceOnUse">
<stop stop-color="#F7DD43"/>
<stop offset="1" stop-color="#F7DD43" stop-opacity="0"/>
</linearGradient>
<linearGradient id="paint71_linear_122_130" x1="938.5" y1="-34" x2="938.5" y2="264.818" gradientUnits="userSpaceOnUse">
<stop stop-color="#F7DD43"/>
<stop offset="1" stop-color="#F7DD43" stop-opacity="0"/>
</linearGradient>
<linearGradient id="paint72_linear_122_130" x1="938.5" y1="-34" x2="938.5" y2="264.818" gradientUnits="userSpaceOnUse">
<stop stop-color="#F7DD43"/>
<stop offset="1" stop-color="#F7DD43" stop-opacity="0"/>
</linearGradient>
<linearGradient id="paint73_linear_122_130" x1="938.5" y1="-34" x2="938.5" y2="264.818" gradientUnits="userSpaceOnUse">
<stop stop-color="#F7DD43"/>
<stop offset="1" stop-color="#F7DD43" stop-opacity="0"/>
</linearGradient>
<linearGradient id="paint74_linear_122_130" x1="938.5" y1="-34" x2="938.5" y2="264.818" gradientUnits="userSpaceOnUse">
<stop stop-color="#F7DD43"/>
<stop offset="1" stop-color="#F7DD43" stop-opacity="0"/>
</linearGradient>
<linearGradient id="paint75_linear_122_130" x1="938.5" y1="-34" x2="938.5" y2="264.818" gradientUnits="userSpaceOnUse">
<stop stop-color="#F7DD43"/>
<stop offset="1" stop-color="#F7DD43" stop-opacity="0"/>
</linearGradient>
<linearGradient id="paint76_linear_122_130" x1="938.5" y1="-34" x2="938.5" y2="264.818" gradientUnits="userSpaceOnUse">
<stop stop-color="#F7DD43"/>
<stop offset="1" stop-color="#F7DD43" stop-opacity="0"/>
</linearGradient>
<linearGradient id="paint77_linear_122_130" x1="938.5" y1="-34" x2="938.5" y2="264.818" gradientUnits="userSpaceOnUse">
<stop stop-color="#F7DD43"/>
<stop offset="1" stop-color="#F7DD43" stop-opacity="0"/>
</linearGradient>
<linearGradient id="paint78_linear_122_130" x1="938.5" y1="-34" x2="938.5" y2="264.818" gradientUnits="userSpaceOnUse">
<stop stop-color="#F7DD43"/>
<stop offset="1" stop-color="#F7DD43" stop-opacity="0"/>
</linearGradient>
<linearGradient id="paint79_linear_122_130" x1="938.5" y1="-34" x2="938.5" y2="264.818" gradientUnits="userSpaceOnUse">
<stop stop-color="#F7DD43"/>
<stop offset="1" stop-color="#F7DD43" stop-opacity="0"/>
</linearGradient>
<linearGradient id="paint80_linear_122_130" x1="938.5" y1="-34" x2="938.5" y2="264.818" gradientUnits="userSpaceOnUse">
<stop stop-color="#F7DD43"/>
<stop offset="1" stop-color="#F7DD43" stop-opacity="0"/>
</linearGradient>
<linearGradient id="paint81_linear_122_130" x1="938.5" y1="-34" x2="938.5" y2="264.818" gradientUnits="userSpaceOnUse">
<stop stop-color="#F7DD43"/>
<stop offset="1" stop-color="#F7DD43" stop-opacity="0"/>
</linearGradient>
<linearGradient id="paint82_linear_122_130" x1="938.5" y1="-34" x2="938.5" y2="264.818" gradientUnits="userSpaceOnUse">
<stop stop-color="#F7DD43"/>
<stop offset="1" stop-color="#F7DD43" stop-opacity="0"/>
</linearGradient>
<linearGradient id="paint83_linear_122_130" x1="938.5" y1="-34" x2="938.5" y2="264.818" gradientUnits="userSpaceOnUse">
<stop stop-color="#F7DD43"/>
<stop offset="1" stop-color="#F7DD43" stop-opacity="0"/>
</linearGradient>
<linearGradient id="paint84_linear_122_130" x1="938.5" y1="-34" x2="938.5" y2="264.818" gradientUnits="userSpaceOnUse">
<stop stop-color="#F7DD43"/>
<stop offset="1" stop-color="#F7DD43" stop-opacity="0"/>
</linearGradient>
<linearGradient id="paint85_linear_122_130" x1="938.5" y1="-34" x2="938.5" y2="264.818" gradientUnits="userSpaceOnUse">
<stop stop-color="#F7DD43"/>
<stop offset="1" stop-color="#F7DD43" stop-opacity="0"/>
</linearGradient>
<linearGradient id="paint86_linear_122_130" x1="938.5" y1="-34" x2="938.5" y2="264.818" gradientUnits="userSpaceOnUse">
<stop stop-color="#F7DD43"/>
<stop offset="1" stop-color="#F7DD43" stop-opacity="0"/>
</linearGradient>
<linearGradient id="paint87_linear_122_130" x1="938.5" y1="-34" x2="938.5" y2="264.818" gradientUnits="userSpaceOnUse">
<stop stop-color="#F7DD43"/>
<stop offset="1" stop-color="#F7DD43" stop-opacity="0"/>
</linearGradient>
<linearGradient id="paint88_linear_122_130" x1="938.5" y1="-34" x2="938.5" y2="264.818" gradientUnits="userSpaceOnUse">
<stop stop-color="#F7DD43"/>
<stop offset="1" stop-color="#F7DD43" stop-opacity="0"/>
</linearGradient>
<linearGradient id="paint89_linear_122_130" x1="938.5" y1="-34" x2="938.5" y2="264.818" gradientUnits="userSpaceOnUse">
<stop stop-color="#F7DD43"/>
<stop offset="1" stop-color="#F7DD43" stop-opacity="0"/>
</linearGradient>
<linearGradient id="paint90_linear_122_130" x1="938.5" y1="-34" x2="938.5" y2="264.818" gradientUnits="userSpaceOnUse">
<stop stop-color="#F7DD43"/>
<stop offset="1" stop-color="#F7DD43" stop-opacity="0"/>
</linearGradient>
<linearGradient id="paint91_linear_122_130" x1="938.5" y1="-34" x2="938.5" y2="264.818" gradientUnits="userSpaceOnUse">
<stop stop-color="#F7DD43"/>
<stop offset="1" stop-color="#F7DD43" stop-opacity="0"/>
</linearGradient>
<linearGradient id="paint92_linear_122_130" x1="938.5" y1="-34" x2="938.5" y2="264.818" gradientUnits="userSpaceOnUse">
<stop stop-color="#F7DD43"/>
<stop offset="1" stop-color="#F7DD43" stop-opacity="0"/>
</linearGradient>
<linearGradient id="paint93_linear_122_130" x1="938.5" y1="-34" x2="938.5" y2="264.818" gradientUnits="userSpaceOnUse">
<stop stop-color="#F7DD43"/>
<stop offset="1" stop-color="#F7DD43" stop-opacity="0"/>
</linearGradient>
<clipPath id="clip0_122_130">
<rect width="1024" height="753" fill="white"/>
</clipPath>
</defs>
</svg>
